<svg width="1512" height="191" viewBox="0 0 1512 191" fill="none" xmlns="http://www.w3.org/2000/svg">
<path d="M-137 96L-109.517 80C-82.0333 64 -27.0667 32 27.9 42.7C82.8667 53 137.833 107 192.8 106.7C247.767 107 302.733 53 357.7 48C412.667 43 467.633 85 522.6 74.7C577.567 64 632.533 0 687.5 0C742.467 0 797.433 64 852.4 96C907.367 128 962.333 128 1017.3 138.7C1072.27 149 1127.23 171 1182.2 170.7C1237.17 171 1292.13 149 1347.1 128C1402.07 107 1457.03 85 1484.52 74.7L1512 64V192H1484.52C1457.03 192 1402.07 192 1347.1 192C1292.13 192 1237.17 192 1182.2 192C1127.23 192 1072.27 192 1017.3 192C962.333 192 907.367 192 852.4 192C797.433 192 742.467 192 687.5 192C632.533 192 577.567 192 522.6 192C467.633 192 412.667 192 357.7 192C302.733 192 247.767 192 192.8 192C137.833 192 82.8667 192 27.9 192C-27.0667 192 -82.0333 192 -109.517 192H-137V96Z" fill="#163767"/>
</svg>
