<svg width="675" height="524" viewBox="0 0 675 524" fill="none" xmlns="http://www.w3.org/2000/svg">
<g clip-path="url(#clip0_2463_2399)">
<path d="M658.18 228.369C658.368 225.323 651.606 223.835 651.914 221.169C652.22 218.512 659.04 219.064 666.25 214.265C667.55 213.4 675.744 207.946 674.945 203.855C673.431 196.099 640.941 200.057 637.779 188.775C637.085 186.298 637.729 182.825 635.816 175.043C635.055 171.947 634.422 170.34 633.131 169.833C631.3 169.113 629.742 171.237 625.246 174.373C618.503 179.077 617.271 177.606 612.432 181.751C608.84 184.828 607.633 187.255 606.069 186.766C603.856 186.074 604.845 180.767 602.311 179.472C599.725 178.15 595.217 181.898 592.454 185.147C587.27 191.245 586.732 197.357 585.009 202.945C583.136 209.018 578.986 217.31 568.692 225.85L474.724 298.157C494.506 283.682 549.824 244.791 571.377 231.06C577.599 227.097 584.133 223.238 591.267 225.013C598.135 226.721 604.731 233.445 615.804 237.907C617.097 238.428 620.714 239.829 622.343 238.195C623.689 236.843 622.45 234.648 623.689 233.366C625.352 231.647 628.931 234.203 634.796 235.078C638.932 235.695 642.103 235.163 644.829 234.705C645.651 234.568 657.93 232.425 658.18 228.369Z" fill="#F2F2F2"/>
<path d="M499.407 187.298C498.047 186.321 495.405 189.4 494.256 188.472C493.111 187.546 495.335 184.167 495.187 179.041C495.161 178.117 494.993 172.292 492.862 171.526C488.824 170.074 481.288 188.073 475.137 186.458C473.787 186.104 472.361 184.767 468.195 183.515C466.538 183.016 465.61 182.881 465.002 183.404C464.139 184.147 464.675 185.568 464.835 188.805C465.073 193.661 464.034 193.876 464.563 197.582C464.955 200.334 465.733 201.66 465.055 202.331C464.095 203.279 461.917 201.235 460.584 202.176C459.225 203.136 459.664 206.557 460.375 208.928C461.711 213.377 464.393 215.419 466.491 217.926C468.77 220.649 471.423 225.195 472.418 233L478.877 302.616C477.863 288.176 475.768 248.254 475.611 233.11C475.566 228.739 475.66 224.235 478.542 221.046C481.317 217.976 486.342 216.494 491.608 212.036C492.224 211.515 493.918 210.043 493.629 208.726C493.39 207.638 492.013 207.647 491.776 206.634C491.457 205.276 493.676 204.156 495.775 201.366C497.255 199.398 497.923 197.599 498.497 196.053C498.67 195.586 501.218 188.598 499.407 187.298Z" fill="#F2F2F2"/>
<path d="M522.313 213.318L526.493 205.012L527.246 204.698C530.726 203.245 533.318 201.242 534.952 198.743C535.212 198.346 535.453 197.934 535.698 197.516C536.67 195.856 537.878 193.792 540.376 192.175C541.771 191.275 545.275 189.391 547.369 191.454C547.938 192.003 548.216 192.653 548.345 193.272C548.456 193.221 548.568 193.171 548.689 193.116C550.177 192.47 551.079 192.384 551.948 192.301C552.615 192.238 553.304 192.173 554.584 191.764C555.145 191.585 555.608 191.406 555.998 191.256C557.179 190.803 558.656 190.313 560.035 191.339C561.474 192.49 561.41 194.354 561.369 195.588C561.296 197.789 560.997 199.198 560.798 200.132C560.725 200.473 560.644 200.857 560.642 200.993C560.638 202.084 564.985 204.208 566.616 205.017C570.289 206.823 573.467 208.385 573.218 211.433C573.042 213.615 571.07 215.24 567.194 216.39C565.986 216.747 564.867 216.872 563.917 216.917C564.224 217.621 564.363 218.461 564.04 219.387C563.273 221.578 560.539 222.351 555.911 221.692C554.759 221.532 553.213 221.31 551.411 220.437C550.562 220.025 549.857 219.564 549.26 219.159C549.016 219.508 548.686 219.838 548.221 220.087C546.857 220.823 545.237 220.471 543.428 218.964C541.417 217.338 539.972 215.674 538.696 214.208C537.581 212.93 536.617 211.833 535.681 211.248C533.93 210.188 531.741 210.666 529.06 211.401L522.313 213.318Z" fill="#F2F2F2"/>
<path d="M555.862 170.136L547.201 167.968L546.723 167.279C544.511 164.089 542.021 161.947 539.319 160.909C538.89 160.744 538.452 160.602 538.007 160.457C536.241 159.885 534.046 159.173 531.933 157.03C530.756 155.831 528.143 152.727 529.5 150.061C529.858 149.341 530.382 148.892 530.916 148.602C530.841 148.502 530.766 148.4 530.686 148.29C529.717 146.933 529.41 146.032 529.114 145.165C528.886 144.498 528.652 143.81 527.954 142.606C527.647 142.077 527.366 141.649 527.13 141.289C526.416 140.196 525.593 138.81 526.182 137.139C526.87 135.376 528.592 134.969 529.731 134.698C531.765 134.214 533.129 134.162 534.034 134.129C534.365 134.117 534.737 134.102 534.862 134.07C535.862 133.797 536.702 128.814 537.029 126.94C537.749 122.727 538.373 119.081 541.225 118.562C543.266 118.189 545.254 119.793 547.289 123.466C547.922 124.609 548.321 125.722 548.603 126.682C549.169 126.19 549.902 125.834 550.831 125.93C553.031 126.159 554.432 128.758 555.003 133.658C555.148 134.876 555.337 136.513 554.996 138.577C554.834 139.55 554.591 140.388 554.372 141.101C554.753 141.262 555.138 141.516 555.484 141.928C556.504 143.136 556.592 144.882 555.673 147.113C554.695 149.582 553.539 151.482 552.521 153.158C551.634 154.623 550.875 155.887 550.577 156.992C550.052 159.052 551.044 161.169 552.397 163.724L555.862 170.136Z" fill="#F2F2F2"/>
<path d="M566.793 144.666L570.974 136.36L571.726 136.046C575.206 134.593 577.798 132.59 579.433 130.091C579.693 129.694 579.933 129.283 580.179 128.864C581.151 127.204 582.359 125.14 584.856 123.523C586.251 122.623 589.755 120.739 591.85 122.803C592.418 123.351 592.696 124.001 592.825 124.62C592.936 124.569 593.049 124.519 593.17 124.464C594.657 123.818 595.559 123.732 596.428 123.65C597.096 123.586 597.784 123.521 599.064 123.112C599.625 122.933 600.088 122.754 600.478 122.604C601.659 122.151 603.136 121.661 604.515 122.687C605.954 123.838 605.891 125.702 605.849 126.936C605.776 129.138 605.477 130.546 605.278 131.48C605.205 131.821 605.124 132.206 605.122 132.341C605.119 133.433 609.465 135.556 611.097 136.365C614.769 138.171 617.947 139.733 617.698 142.781C617.522 144.963 615.55 146.588 611.674 147.738C610.467 148.095 609.348 148.22 608.397 148.266C608.704 148.97 608.844 149.809 608.521 150.735C607.753 152.926 605.019 153.699 600.391 153.041C599.24 152.88 597.693 152.658 595.891 151.785C595.042 151.373 594.337 150.912 593.74 150.507C593.496 150.856 593.166 151.186 592.701 151.435C591.337 152.171 589.717 151.819 587.908 150.312C585.897 148.687 584.452 147.022 583.176 145.556C582.061 144.278 581.097 143.181 580.161 142.596C578.41 141.536 576.221 142.015 573.54 142.749L566.793 144.666Z" fill="#F2F2F2"/>
<path d="M477.249 299.8L476.376 297.68L474.453 296.605C474.538 296.41 474.702 295.938 474.964 295.202C476.4 291.175 480.768 278.918 489.448 260.919C495.508 248.355 502.392 235.911 509.913 223.929C517.445 211.927 523.805 203.318 528.915 196.397C532.771 191.177 536.526 186.269 540.187 181.489C549.964 168.715 559.198 156.649 567.636 141.999C569.522 138.729 573.443 131.922 574.341 122.307C574.862 116.73 574.293 111.033 572.647 105.376L576.83 104.017C578.644 110.265 579.27 116.573 578.693 122.765C577.697 133.426 573.424 140.843 571.371 144.407C562.783 159.316 553.459 171.498 543.587 184.394C539.942 189.157 536.201 194.044 532.362 199.242C527.298 206.099 520.994 214.634 513.559 226.481C506.127 238.32 499.328 250.612 493.343 263.017C484.773 280.789 480.472 292.865 479.058 296.832C478.302 298.949 478.144 299.393 477.249 299.8Z" fill="#F2F2F2"/>
<path d="M562.104 106.645C561.956 106.538 561.809 106.426 561.664 106.305C558.705 103.906 557.12 99.9015 556.949 94.4046C556.873 91.8216 557.535 89.4175 558.856 84.6228C559.058 83.8829 560.126 80.158 562.299 75.5425C563.717 72.5259 564.509 71.4082 565.684 70.7651C566.99 70.0474 568.428 69.9287 569.816 70.1512C570.007 69.753 570.288 69.4036 570.686 69.1284C572.331 67.9831 573.831 69.3754 574.65 70.1162C575.059 70.4998 575.567 70.9823 576.191 71.385C577.17 72.0228 577.873 72.0935 578.934 72.2052C579.949 72.3113 581.212 72.4432 582.765 73.1349C585.833 74.4866 587.562 76.9199 588.132 77.7213C591.144 81.9209 590.99 86.5206 590.811 91.8462C590.772 92.9126 590.539 96.7274 589.137 101.173C588.125 104.38 587.251 105.498 586.458 106.226C584.834 107.726 583.11 108.01 578.957 108.385C574.615 108.782 572.438 108.978 570.765 108.845C566.873 108.528 564.429 108.329 562.104 106.645Z" fill="#F2F2F2"/>
<path d="M544.864 0H299.712C290.719 0 283.406 7.73023 283.406 17.2367V284.542C283.406 294.049 290.719 301.779 299.712 301.779H544.864C553.857 301.779 561.17 294.049 561.17 284.542V17.2367C561.17 7.73023 553.857 0 544.864 0ZM559.455 284.542C559.455 293.061 552.922 299.966 544.864 299.966H299.712C291.653 299.966 285.121 293.061 285.121 284.542V17.2367C285.121 8.71815 291.653 1.81249 299.712 1.81249H429.568C501.303 1.81249 559.455 63.2851 559.455 139.115V284.542Z" fill="#3F3D56"/>
<path d="M278.218 200.9C269.625 203.355 263.859 210.032 265.338 215.812C266.817 221.592 274.98 224.286 283.575 221.829C287.021 220.897 290.206 219.107 292.864 216.607L329.146 205.719L323.949 187.83L288.733 200.463C285.245 199.719 281.639 199.869 278.218 200.9Z" fill="#FFB6B6"/>
<path d="M430.261 147.23C430.261 147.23 440.505 163.114 417.419 175.097C394.333 187.08 351.658 204.182 351.658 204.182L292.736 218.612L283.838 197.991L353.755 177.854L410.728 144.244L430.261 147.23Z" fill="#3F3D56"/>
<path d="M423.407 104.949C423.145 112.479 428.273 121.417 433.695 121.601C440.217 121.821 471.05 124.143 472.041 121.44C478.923 102.67 446.512 63.7354 439.207 62.6122C435.281 62.0087 430.579 67.9674 428.772 72.8865C426.239 79.78 429.977 83.0309 427.867 92.3177C426.258 99.3995 423.59 99.6854 423.407 104.949Z" fill="#2F2E41"/>
<path d="M369.737 401.774L348.097 407.016L369.841 475.22L384.505 471.669L369.737 401.774Z" fill="#FFB6B6"/>
<path d="M362.004 453.951L370.374 455.248L371.664 459.988C371.664 459.988 371.943 453.959 381.187 449.828L383.59 454.07C383.59 454.07 388.539 457.436 390.138 465.778L393.689 488.345L386.422 490.383L381.089 475.557C381.089 475.557 378.155 472.722 373.488 491.902C373.488 491.902 371.598 498.348 354.453 497.601C352.096 497.498 350.023 495.836 349.394 493.433C349.047 492.107 349.2 490.736 350.647 489.818C354.331 487.479 358.615 487.699 360.268 483.542C361.92 479.386 362.004 453.951 362.004 453.951Z" fill="#2F2E41"/>
<path d="M416.751 432.783L397.426 432.278L400.132 504.097L415.173 504.381L416.751 432.783Z" fill="#FFB6B6"/>
<path d="M397.367 481.458L405.195 484.847L405.369 489.775C405.369 489.775 407.012 483.995 416.925 482.337L418.291 487.065C418.291 487.065 422.328 491.591 421.981 500.096L420.29 522.902L412.773 523.031L410.972 507.285C410.972 507.285 408.77 503.787 399.874 521.216C399.874 521.216 396.572 526.991 380.1 521.905C377.836 521.206 376.202 519.065 376.139 516.573C376.104 515.198 376.565 513.906 378.179 513.382C382.286 512.05 386.394 513.352 388.945 509.739C391.495 506.125 397.367 481.458 397.367 481.458Z" fill="#2F2E41"/>
<path d="M456.627 354.338L354.425 345.978L383.186 221.341L451.997 210.861L456.627 354.338Z" fill="#2F2E41"/>
<path d="M442.532 125.237L464.065 113.109L481.454 134.813L446.512 253.205L382.593 223.285L431.141 135.548L442.532 125.237Z" fill="#163767"/>
<path d="M445.261 231.828C445.261 231.828 452.118 269.205 430.884 288.631L424.384 310.476L417.366 350.796L418.001 454.934L392.283 452.215L381.995 352.532L381.873 302.92L343.904 337.291L383.641 419.795L351.262 434.782L311.716 335.359C308.968 329.303 309.701 322.124 313.608 316.827L382.592 223.285L445.261 231.828Z" fill="#2F2E41"/>
<path d="M471.921 122.915L429.701 164.553C419.709 250.264 425.163 328.969 453.913 397.104L524.861 362.344C466.358 343.587 472.096 240.596 483.447 130.244L471.921 122.915Z" fill="#3F3D56"/>
<path d="M435.51 135.685L442.006 125.062L406.083 147.387L377.678 230.599L430.077 161.474L435.51 135.685Z" fill="#3F3D56"/>
<path d="M525.368 292.205C527.844 301.243 534.262 307.218 539.703 305.552C545.144 303.885 547.546 295.209 545.068 286.168C544.125 282.543 542.375 279.209 539.963 276.445L529.015 238.292L512.188 244.104L524.767 281.099C524.125 284.799 524.332 288.607 525.368 292.205Z" fill="#FFB6B6"/>
<path d="M470.281 131.132C470.281 131.132 485.007 119.852 497.002 143.901C508.996 167.951 526.394 212.552 526.394 212.552L541.733 274.398L522.489 284.393L501.438 211.093L468.019 151.858L470.281 131.132Z" fill="#3F3D56"/>
<path d="M452.771 112.133C465.978 112.133 476.685 100.815 476.685 86.853C476.685 72.8911 465.978 61.5728 452.771 61.5728C439.563 61.5728 428.856 72.8911 428.856 86.853C428.856 100.815 439.563 112.133 452.771 112.133Z" fill="#FFB6B6"/>
<path d="M452.849 76.99C451.503 76.8497 450.811 78.3544 445.67 80.4537C443.849 81.1975 442.916 81.5708 441.847 81.6435C438.595 81.8643 436.067 79.9657 434.378 78.6968C431.633 76.6343 429.864 75.3057 429.519 73.1816C429.068 70.4098 432.036 67.3134 437.992 61.2338C440.908 58.2565 442.685 56.458 445.539 54.3176C450.325 50.7273 452.719 48.9322 456.074 48.58C460.517 48.1135 463.895 50.3549 468.77 53.5893C470.087 54.4631 471.985 54.8833 473.998 55.0434C480.587 55.5676 486.236 60.2102 488.028 66.9336C488.165 67.4473 488.28 67.9122 488.366 68.3104C491.904 84.6353 490.917 101.615 486.076 117.561C485.946 117.991 485.837 118.39 485.752 118.755C483.503 128.466 452.613 132.252 448.999 124.042C446.724 118.872 457.357 113.699 458.945 98.2837C460.05 87.5521 456.207 77.34 452.849 76.99Z" fill="#2F2E41"/>
<path d="M359.705 82.6973H100.586V84.1014H359.705V82.6973Z" fill="#E6E6E6"/>
<path d="M323.124 62.1684H137.168C134.238 62.1684 131.854 59.6488 131.854 56.552C131.854 53.4551 134.238 50.9355 137.168 50.9355H323.124C326.054 50.9355 328.437 53.4551 328.437 56.552C328.437 59.6488 326.054 62.1684 323.124 62.1684Z" fill="#E6E6E6"/>
<path d="M101.161 93.8714C107.316 93.8714 112.306 88.5968 112.306 82.0902C112.306 75.5837 107.316 70.3091 101.161 70.3091C95.0056 70.3091 90.0159 75.5837 90.0159 82.0902C90.0159 88.5968 95.0056 93.8714 101.161 93.8714Z" fill="#E6E6E6"/>
<path d="M135.453 68.4964C141.608 68.4964 146.597 63.2218 146.597 56.7152C146.597 50.2087 141.608 44.9341 135.453 44.9341C129.297 44.9341 124.308 50.2087 124.308 56.7152C124.308 63.2218 129.297 68.4964 135.453 68.4964Z" fill="#E6E6E6"/>
<path d="M272.261 214.103H13.1425V215.507H272.261V214.103Z" fill="#3F3D56"/>
<path d="M235.68 193.574H49.7235C46.7939 193.574 44.4105 191.054 44.4105 187.957C44.4105 184.86 46.7939 182.341 49.7235 182.341H235.68C238.61 182.341 240.993 184.86 240.993 187.957C240.993 191.054 238.61 193.574 235.68 193.574Z" fill="#163767"/>
<path d="M11.1448 225.277C17.2999 225.277 22.2897 220.002 22.2897 213.496C22.2897 206.989 17.2999 201.714 11.1448 201.714C4.98971 201.714 0 206.989 0 213.496C0 220.002 4.98971 225.277 11.1448 225.277Z" fill="#163767"/>
<path d="M45.4366 199.902C51.5917 199.902 56.5814 194.627 56.5814 188.121C56.5814 181.614 51.5917 176.339 45.4366 176.339C39.2815 176.339 34.2917 181.614 34.2917 188.121C34.2917 194.627 39.2815 199.902 45.4366 199.902Z" fill="#163767"/>
<path d="M303.124 359.102H44.005V360.506H303.124V359.102Z" fill="#E6E6E6"/>
<path d="M266.543 338.573H80.5861C77.6565 338.573 75.273 336.053 75.273 332.956C75.273 329.859 77.6565 327.34 80.5861 327.34H266.543C269.472 327.34 271.856 329.859 271.856 332.956C271.856 336.053 269.472 338.573 266.543 338.573Z" fill="#E6E6E6"/>
<path d="M75.4419 343.994C81.5971 343.994 86.5868 338.72 86.5868 332.213C86.5868 325.707 81.5971 320.432 75.4419 320.432C69.2868 320.432 64.2971 325.707 64.2971 332.213C64.2971 338.72 69.2868 343.994 75.4419 343.994Z" fill="#E6E6E6"/>
<path d="M42.0074 371.182C48.1626 371.182 53.1523 365.907 53.1523 359.401C53.1523 352.894 48.1626 347.62 42.0074 347.62C35.8523 347.62 30.8626 352.894 30.8626 359.401C30.8626 365.907 35.8523 371.182 42.0074 371.182Z" fill="#E6E6E6"/>
</g>
<defs>
<clipPath id="clip0_2463_2399">
<rect width="675" height="524" fill="white"/>
</clipPath>
</defs>
</svg>
